<mxfile host="app.diagrams.net" modified="2024-03-21T20:45:21.781Z" agent="Mozilla/5.0 (Windows NT 10.0; Win64; x64) AppleWebKit/537.36 (KHTML, like Gecko) Chrome/122.0.0.0 Safari/537.36" etag="v8Zi2GQ1MNOmWki5xJzK" version="24.0.7" type="google">
  <diagram name="Page-1" id="Zg2J0i8kcsBhqcDElQuv">
    <mxGraphModel grid="1" page="1" gridSize="10" guides="1" tooltips="1" connect="1" arrows="1" fold="1" pageScale="1" pageWidth="850" pageHeight="1100" math="1" shadow="0">
      <root>
        <mxCell id="0" />
        <mxCell id="1" parent="0" />
        <mxCell id="kov3exJGOiLsOatTBzYe-4" value="&lt;font style=&quot;font-size: 14px;&quot;&gt;$$64 \times 64$$&lt;/font&gt;" style="text;html=1;align=center;verticalAlign=middle;resizable=0;points=[];autosize=1;strokeColor=none;fillColor=none;rotation=-90;" vertex="1" parent="1">
          <mxGeometry x="120" y="340" width="130" height="30" as="geometry" />
        </mxCell>
        <mxCell id="kov3exJGOiLsOatTBzYe-5" value="$$3$$" style="text;html=1;align=center;verticalAlign=middle;resizable=0;points=[];autosize=1;strokeColor=none;fillColor=none;rotation=0;" vertex="1" parent="1">
          <mxGeometry x="166.5" y="160" width="60" height="30" as="geometry" />
        </mxCell>
        <mxCell id="kov3exJGOiLsOatTBzYe-10" value="" style="shape=flexArrow;endArrow=classic;html=1;rounded=0;fillColor=#000066;strokeColor=#000066;endWidth=7;endSize=6.38;" edge="1" parent="1">
          <mxGeometry width="50" height="50" relative="1" as="geometry">
            <mxPoint x="200" y="289.5" as="sourcePoint" />
            <mxPoint x="230" y="290" as="targetPoint" />
          </mxGeometry>
        </mxCell>
        <mxCell id="kov3exJGOiLsOatTBzYe-54" value="" style="shape=flexArrow;endArrow=classic;html=1;rounded=0;fillColor=#000066;strokeColor=#000066;endWidth=7;endSize=6.38;entryX=0;entryY=0.5;entryDx=0;entryDy=0;" edge="1" parent="1">
          <mxGeometry width="50" height="50" relative="1" as="geometry">
            <mxPoint x="350" y="489.5" as="sourcePoint" />
            <mxPoint x="380" y="490" as="targetPoint" />
          </mxGeometry>
        </mxCell>
        <mxCell id="kov3exJGOiLsOatTBzYe-59" value="" style="shape=flexArrow;endArrow=classic;html=1;rounded=0;fillColor=#000066;strokeColor=#000066;endWidth=7;endSize=6.38;entryX=0;entryY=0.5;entryDx=0;entryDy=0;" edge="1" parent="1">
          <mxGeometry width="50" height="50" relative="1" as="geometry">
            <mxPoint x="470" y="614.5" as="sourcePoint" />
            <mxPoint x="500" y="615" as="targetPoint" />
          </mxGeometry>
        </mxCell>
        <mxCell id="kov3exJGOiLsOatTBzYe-63" value="" style="shape=flexArrow;endArrow=classic;html=1;rounded=0;fillColor=#660000;strokeColor=#660000;endWidth=7;endSize=6.38;" edge="1" parent="1">
          <mxGeometry width="50" height="50" relative="1" as="geometry">
            <mxPoint x="347" y="400" as="sourcePoint" />
            <mxPoint x="347" y="430" as="targetPoint" />
          </mxGeometry>
        </mxCell>
        <mxCell id="kov3exJGOiLsOatTBzYe-64" value="" style="shape=flexArrow;endArrow=classic;html=1;rounded=0;fillColor=#660000;strokeColor=#660000;endWidth=7;endSize=6.38;" edge="1" parent="1">
          <mxGeometry width="50" height="50" relative="1" as="geometry">
            <mxPoint x="464.5" y="550" as="sourcePoint" />
            <mxPoint x="464.5" y="580" as="targetPoint" />
          </mxGeometry>
        </mxCell>
        <mxCell id="kov3exJGOiLsOatTBzYe-65" value="" style="shape=flexArrow;endArrow=classic;html=1;rounded=0;fillColor=#660000;strokeColor=#660000;endWidth=7;endSize=6.38;" edge="1" parent="1">
          <mxGeometry width="50" height="50" relative="1" as="geometry">
            <mxPoint x="612.4" y="650" as="sourcePoint" />
            <mxPoint x="612.4" y="680" as="targetPoint" />
          </mxGeometry>
        </mxCell>
        <mxCell id="kov3exJGOiLsOatTBzYe-76" value="" style="shape=flexArrow;endArrow=classic;html=1;rounded=0;fillColor=#999999;strokeColor=#999999;endWidth=7;endSize=6.38;" edge="1" parent="1">
          <mxGeometry width="50" height="50" relative="1" as="geometry">
            <mxPoint x="365" y="290" as="sourcePoint" />
            <mxPoint x="1080" y="290" as="targetPoint" />
          </mxGeometry>
        </mxCell>
        <mxCell id="kov3exJGOiLsOatTBzYe-77" value="$$64$$" style="text;html=1;align=center;verticalAlign=middle;resizable=0;points=[];autosize=1;strokeColor=none;fillColor=none;rotation=0;" vertex="1" parent="1">
          <mxGeometry x="247.5" y="160" width="60" height="30" as="geometry" />
        </mxCell>
        <mxCell id="kov3exJGOiLsOatTBzYe-89" value="$$128$$" style="text;html=1;align=center;verticalAlign=middle;resizable=0;points=[];autosize=1;strokeColor=none;fillColor=none;rotation=0;" vertex="1" parent="1">
          <mxGeometry x="350" y="410" width="70" height="30" as="geometry" />
        </mxCell>
        <mxCell id="kov3exJGOiLsOatTBzYe-91" value="&lt;div style=&quot;font-size: 14px;&quot;&gt;$$32^2$$&lt;/div&gt;" style="text;html=1;align=center;verticalAlign=middle;resizable=0;points=[];autosize=1;strokeColor=none;fillColor=none;rotation=-90;" vertex="1" parent="1">
          <mxGeometry x="290" y="510" width="90" height="30" as="geometry" />
        </mxCell>
        <mxCell id="kov3exJGOiLsOatTBzYe-92" value="&lt;div style=&quot;font-size: 13px;&quot;&gt;$$16^2$$&lt;/div&gt;" style="text;html=1;align=center;verticalAlign=middle;resizable=0;points=[];autosize=1;strokeColor=none;fillColor=none;rotation=-90;" vertex="1" parent="1">
          <mxGeometry x="410" y="620" width="80" height="30" as="geometry" />
        </mxCell>
        <mxCell id="kov3exJGOiLsOatTBzYe-93" value="$$256$$" style="text;html=1;align=center;verticalAlign=middle;resizable=0;points=[];autosize=1;strokeColor=none;fillColor=none;rotation=0;" vertex="1" parent="1">
          <mxGeometry x="480" y="560" width="70" height="30" as="geometry" />
        </mxCell>
        <mxCell id="kov3exJGOiLsOatTBzYe-94" value="&lt;div style=&quot;font-size: 13px;&quot;&gt;$$8^2$$&lt;/div&gt;" style="text;html=1;align=center;verticalAlign=middle;resizable=0;points=[];autosize=1;strokeColor=none;fillColor=none;rotation=-90;" vertex="1" parent="1">
          <mxGeometry x="560" y="715" width="70" height="30" as="geometry" />
        </mxCell>
        <mxCell id="kov3exJGOiLsOatTBzYe-95" value="$$512$$" style="text;html=1;align=center;verticalAlign=middle;resizable=0;points=[];autosize=1;strokeColor=none;fillColor=none;rotation=0;" vertex="1" parent="1">
          <mxGeometry x="698.75" y="675" width="70" height="30" as="geometry" />
        </mxCell>
        <mxCell id="kov3exJGOiLsOatTBzYe-102" value="" style="shape=flexArrow;endArrow=classic;html=1;rounded=0;fillColor=#999999;strokeColor=#999999;endWidth=7;endSize=6.38;" edge="1" parent="1">
          <mxGeometry width="50" height="50" relative="1" as="geometry">
            <mxPoint x="470" y="490" as="sourcePoint" />
            <mxPoint x="960" y="490" as="targetPoint" />
          </mxGeometry>
        </mxCell>
        <mxCell id="kov3exJGOiLsOatTBzYe-103" value="" style="shape=flexArrow;endArrow=classic;html=1;rounded=0;fillColor=#999999;strokeColor=#999999;endWidth=7;endSize=6.38;" edge="1" parent="1">
          <mxGeometry width="50" height="50" relative="1" as="geometry">
            <mxPoint x="620" y="615" as="sourcePoint" />
            <mxPoint x="820" y="615" as="targetPoint" />
          </mxGeometry>
        </mxCell>
        <mxCell id="kov3exJGOiLsOatTBzYe-112" value="$$128$$" style="text;html=1;align=center;verticalAlign=middle;resizable=0;points=[];autosize=1;strokeColor=none;fillColor=none;rotation=0;" vertex="1" parent="1">
          <mxGeometry x="390" y="410" width="70" height="30" as="geometry" />
        </mxCell>
        <mxCell id="kov3exJGOiLsOatTBzYe-114" value="" style="rounded=0;whiteSpace=wrap;html=1;fillColor=#d5e8d4;strokeColor=#82b366;" vertex="1" parent="1">
          <mxGeometry x="195" y="190" width="3" height="200" as="geometry" />
        </mxCell>
        <mxCell id="kov3exJGOiLsOatTBzYe-116" value="&lt;font style=&quot;font-size: 14px;&quot;&gt;$$64 \times 64$$&lt;/font&gt;" style="text;html=1;align=center;verticalAlign=middle;resizable=0;points=[];autosize=1;strokeColor=none;fillColor=none;rotation=-90;" vertex="1" parent="1">
          <mxGeometry x="160" y="340" width="130" height="30" as="geometry" />
        </mxCell>
        <mxCell id="kov3exJGOiLsOatTBzYe-117" value="" style="shape=flexArrow;endArrow=classic;html=1;rounded=0;fillColor=#000066;strokeColor=#000066;endWidth=7;endSize=6.38;" edge="1" parent="1">
          <mxGeometry width="50" height="50" relative="1" as="geometry">
            <mxPoint x="240" y="289.5" as="sourcePoint" />
            <mxPoint x="270" y="290" as="targetPoint" />
          </mxGeometry>
        </mxCell>
        <mxCell id="kov3exJGOiLsOatTBzYe-118" value="" style="rounded=0;whiteSpace=wrap;html=1;fillColor=#dae8fc;strokeColor=#6c8ebf;" vertex="1" parent="1">
          <mxGeometry x="235" y="190" width="5" height="200" as="geometry" />
        </mxCell>
        <mxCell id="kov3exJGOiLsOatTBzYe-146" value="" style="rounded=0;whiteSpace=wrap;html=1;fillColor=#FFFFFF;strokeColor=#6c8ebf;" vertex="1" parent="1">
          <mxGeometry x="1090" y="190" width="5" height="200" as="geometry" />
        </mxCell>
        <mxCell id="kov3exJGOiLsOatTBzYe-147" value="&lt;font style=&quot;font-size: 14px;&quot;&gt;$$64 \times 64$$&lt;/font&gt;" style="text;html=1;align=center;verticalAlign=middle;resizable=0;points=[];autosize=1;strokeColor=none;fillColor=none;rotation=-90;" vertex="1" parent="1">
          <mxGeometry x="200" y="340" width="130" height="30" as="geometry" />
        </mxCell>
        <mxCell id="kov3exJGOiLsOatTBzYe-148" value="" style="shape=flexArrow;endArrow=classic;html=1;rounded=0;fillColor=#000066;strokeColor=#000066;endWidth=7;endSize=6.38;entryX=0;entryY=0.5;entryDx=0;entryDy=0;" edge="1" parent="1">
          <mxGeometry width="50" height="50" relative="1" as="geometry">
            <mxPoint x="390" y="489.5" as="sourcePoint" />
            <mxPoint x="420" y="490" as="targetPoint" />
          </mxGeometry>
        </mxCell>
        <mxCell id="kov3exJGOiLsOatTBzYe-149" value="" style="rounded=0;whiteSpace=wrap;html=1;fillColor=#ffe6cc;strokeColor=#d79b00;" vertex="1" parent="1">
          <mxGeometry x="380" y="440" width="10" height="100" as="geometry" />
        </mxCell>
        <mxCell id="kov3exJGOiLsOatTBzYe-150" value="&lt;div style=&quot;font-size: 14px;&quot;&gt;$$32^2$$&lt;/div&gt;" style="text;html=1;align=center;verticalAlign=middle;resizable=0;points=[];autosize=1;strokeColor=none;fillColor=none;rotation=-90;" vertex="1" parent="1">
          <mxGeometry x="325" y="510" width="90" height="30" as="geometry" />
        </mxCell>
        <mxCell id="kov3exJGOiLsOatTBzYe-152" value="" style="rounded=0;whiteSpace=wrap;html=1;fillColor=#dae8fc;strokeColor=#6c8ebf;" vertex="1" parent="1">
          <mxGeometry x="897.5" y="590" width="10" height="50" as="geometry" />
        </mxCell>
        <mxCell id="kov3exJGOiLsOatTBzYe-153" value="&lt;div style=&quot;font-size: 14px;&quot;&gt;$$32^2$$&lt;/div&gt;" style="text;html=1;align=center;verticalAlign=middle;resizable=0;points=[];autosize=1;strokeColor=none;fillColor=none;rotation=-90;" vertex="1" parent="1">
          <mxGeometry x="365" y="510" width="90" height="30" as="geometry" />
        </mxCell>
        <mxCell id="kov3exJGOiLsOatTBzYe-168" value="" style="shape=flexArrow;endArrow=classic;html=1;rounded=0;fillColor=#000066;strokeColor=#000066;endWidth=7;endSize=6.38;entryX=0;entryY=0.5;entryDx=0;entryDy=0;" edge="1" parent="1">
          <mxGeometry width="50" height="50" relative="1" as="geometry">
            <mxPoint x="522.5" y="614.5" as="sourcePoint" />
            <mxPoint x="552.5" y="615" as="targetPoint" />
          </mxGeometry>
        </mxCell>
        <mxCell id="kov3exJGOiLsOatTBzYe-169" value="" style="rounded=0;whiteSpace=wrap;html=1;fillColor=#ffe6cc;strokeColor=#d79b00;" vertex="1" parent="1">
          <mxGeometry x="507.5" y="590" width="15" height="50" as="geometry" />
        </mxCell>
        <mxCell id="kov3exJGOiLsOatTBzYe-172" value="$$256$$" style="text;html=1;align=center;verticalAlign=middle;resizable=0;points=[];autosize=1;strokeColor=none;fillColor=none;rotation=0;" vertex="1" parent="1">
          <mxGeometry x="527.5" y="560" width="70" height="30" as="geometry" />
        </mxCell>
        <mxCell id="kov3exJGOiLsOatTBzYe-173" value="&lt;div style=&quot;font-size: 13px;&quot;&gt;$$16^2$$&lt;/div&gt;" style="text;html=1;align=center;verticalAlign=middle;resizable=0;points=[];autosize=1;strokeColor=none;fillColor=none;rotation=-90;" vertex="1" parent="1">
          <mxGeometry x="455" y="620" width="80" height="30" as="geometry" />
        </mxCell>
        <mxCell id="kov3exJGOiLsOatTBzYe-176" value="" style="rounded=0;whiteSpace=wrap;html=1;fillColor=#f8cecc;strokeColor=#b85450;" vertex="1" parent="1">
          <mxGeometry x="345" y="440" width="5" height="100" as="geometry" />
        </mxCell>
        <mxCell id="kov3exJGOiLsOatTBzYe-177" value="" style="rounded=0;whiteSpace=wrap;html=1;fillColor=#f8cecc;strokeColor=#b85450;" vertex="1" parent="1">
          <mxGeometry x="460" y="590" width="10" height="50" as="geometry" />
        </mxCell>
        <mxCell id="kov3exJGOiLsOatTBzYe-189" value="&lt;div style=&quot;font-size: 13px;&quot;&gt;$$16^2$$&lt;/div&gt;" style="text;html=1;align=center;verticalAlign=middle;resizable=0;points=[];autosize=1;strokeColor=none;fillColor=none;rotation=-90;" vertex="1" parent="1">
          <mxGeometry x="507.5" y="620" width="80" height="30" as="geometry" />
        </mxCell>
        <mxCell id="kov3exJGOiLsOatTBzYe-190" value="" style="rounded=0;whiteSpace=wrap;html=1;fillColor=#dae8fc;strokeColor=#6c8ebf;" vertex="1" parent="1">
          <mxGeometry x="555" y="590" width="15" height="50" as="geometry" />
        </mxCell>
        <mxCell id="kov3exJGOiLsOatTBzYe-191" value="$$64$$" style="text;html=1;align=center;verticalAlign=middle;resizable=0;points=[];autosize=1;strokeColor=none;fillColor=none;rotation=0;" vertex="1" parent="1">
          <mxGeometry x="207.5" y="160" width="60" height="30" as="geometry" />
        </mxCell>
        <mxCell id="kov3exJGOiLsOatTBzYe-192" value="" style="rounded=0;whiteSpace=wrap;html=1;fillColor=#f8cecc;strokeColor=#b85450;" vertex="1" parent="1">
          <mxGeometry x="602.5" y="705" width="15" height="30" as="geometry" />
        </mxCell>
        <mxCell id="kov3exJGOiLsOatTBzYe-45" value="" style="rounded=0;whiteSpace=wrap;html=1;fillColor=#ffe6cc;strokeColor=#d79b00;" vertex="1" parent="1">
          <mxGeometry x="667.5" y="705" width="12.5" height="30" as="geometry" />
        </mxCell>
        <mxCell id="kov3exJGOiLsOatTBzYe-195" value="" style="shape=flexArrow;endArrow=classic;html=1;rounded=0;fillColor=#000066;strokeColor=#000066;endWidth=7;endSize=6.38;entryX=0;entryY=0.5;entryDx=0;entryDy=0;" edge="1" parent="1">
          <mxGeometry width="50" height="50" relative="1" as="geometry">
            <mxPoint x="617.5" y="719.5" as="sourcePoint" />
            <mxPoint x="647.5" y="720" as="targetPoint" />
          </mxGeometry>
        </mxCell>
        <mxCell id="kov3exJGOiLsOatTBzYe-197" value="" style="shape=flexArrow;endArrow=classic;html=1;rounded=0;fillColor=#000066;strokeColor=#000066;endWidth=7;endSize=6.38;entryX=0;entryY=0.5;entryDx=0;entryDy=0;" edge="1" parent="1">
          <mxGeometry width="50" height="50" relative="1" as="geometry">
            <mxPoint x="680" y="719.71" as="sourcePoint" />
            <mxPoint x="710" y="720.21" as="targetPoint" />
          </mxGeometry>
        </mxCell>
        <mxCell id="kov3exJGOiLsOatTBzYe-198" value="$$256$$" style="text;html=1;align=center;verticalAlign=middle;resizable=0;points=[];autosize=1;strokeColor=none;fillColor=none;rotation=0;" vertex="1" parent="1">
          <mxGeometry x="638.75" y="675" width="70" height="30" as="geometry" />
        </mxCell>
        <mxCell id="kov3exJGOiLsOatTBzYe-250" value="" style="shape=flexArrow;endArrow=classic;html=1;rounded=0;fillColor=#009900;strokeColor=#009900;endWidth=7;endSize=6.38;" edge="1" parent="1">
          <mxGeometry width="50" height="50" relative="1" as="geometry">
            <mxPoint x="843.05" y="675" as="sourcePoint" />
            <mxPoint x="843.05" y="646" as="targetPoint" />
          </mxGeometry>
        </mxCell>
        <mxCell id="kov3exJGOiLsOatTBzYe-252" value="" style="rounded=0;whiteSpace=wrap;html=1;fillColor=#FFFFFF;strokeColor=#6c8ebf;" vertex="1" parent="1">
          <mxGeometry x="832.5" y="590" width="15" height="50" as="geometry" />
        </mxCell>
        <mxCell id="kov3exJGOiLsOatTBzYe-253" value="" style="rounded=0;whiteSpace=wrap;html=1;fillColor=#f8cecc;strokeColor=#b85450;" vertex="1" parent="1">
          <mxGeometry x="847.5" y="590" width="15" height="50" as="geometry" />
        </mxCell>
        <mxCell id="kov3exJGOiLsOatTBzYe-254" value="$$512$$" style="text;html=1;align=center;verticalAlign=middle;resizable=0;points=[];autosize=1;strokeColor=none;fillColor=none;rotation=0;" vertex="1" parent="1">
          <mxGeometry x="810" y="560" width="70" height="30" as="geometry" />
        </mxCell>
        <mxCell id="kov3exJGOiLsOatTBzYe-256" value="&lt;div style=&quot;font-size: 13px;&quot;&gt;$$16^2$$&lt;/div&gt;" style="text;html=1;align=center;verticalAlign=middle;resizable=0;points=[];autosize=1;strokeColor=none;fillColor=none;rotation=-90;" vertex="1" parent="1">
          <mxGeometry x="782.5" y="620" width="80" height="30" as="geometry" />
        </mxCell>
        <mxCell id="kov3exJGOiLsOatTBzYe-260" value="&lt;div style=&quot;font-size: 13px;&quot;&gt;$$8^2$$&lt;/div&gt;" style="text;html=1;align=center;verticalAlign=middle;resizable=0;points=[];autosize=1;strokeColor=none;fillColor=none;rotation=-90;" vertex="1" parent="1">
          <mxGeometry x="622.5" y="715" width="70" height="30" as="geometry" />
        </mxCell>
        <mxCell id="kov3exJGOiLsOatTBzYe-265" value="&lt;div style=&quot;font-size: 13px;&quot;&gt;$$8^2$$&lt;/div&gt;" style="text;html=1;align=center;verticalAlign=middle;resizable=0;points=[];autosize=1;strokeColor=none;fillColor=none;rotation=-90;" vertex="1" parent="1">
          <mxGeometry x="685" y="715" width="70" height="30" as="geometry" />
        </mxCell>
        <mxCell id="kov3exJGOiLsOatTBzYe-196" value="" style="rounded=0;whiteSpace=wrap;html=1;fillColor=#dae8fc;strokeColor=#6c8ebf;" vertex="1" parent="1">
          <mxGeometry x="727.5" y="705" width="12.5" height="30" as="geometry" />
        </mxCell>
        <mxCell id="zQMsx2hcJBcJ69cjAIDr-8" value="" style="edgeStyle=orthogonalEdgeStyle;rounded=0;orthogonalLoop=1;jettySize=auto;html=1;" edge="1" parent="1" source="kov3exJGOiLsOatTBzYe-276" target="kov3exJGOiLsOatTBzYe-176">
          <mxGeometry relative="1" as="geometry" />
        </mxCell>
        <mxCell id="kov3exJGOiLsOatTBzYe-276" value="" style="rounded=0;whiteSpace=wrap;html=1;fillColor=#dae8fc;strokeColor=#6c8ebf;" vertex="1" parent="1">
          <mxGeometry x="420" y="440" width="10" height="100" as="geometry" />
        </mxCell>
        <mxCell id="kov3exJGOiLsOatTBzYe-277" value="&lt;div style=&quot;font-size: 13px;&quot;&gt;$$16^2$$&lt;/div&gt;" style="text;html=1;align=center;verticalAlign=middle;resizable=0;points=[];autosize=1;strokeColor=none;fillColor=none;rotation=-90;" vertex="1" parent="1">
          <mxGeometry x="847.5" y="620" width="80" height="30" as="geometry" />
        </mxCell>
        <mxCell id="kov3exJGOiLsOatTBzYe-278" value="$$256$$" style="text;html=1;align=center;verticalAlign=middle;resizable=0;points=[];autosize=1;strokeColor=none;fillColor=none;rotation=0;" vertex="1" parent="1">
          <mxGeometry x="867.5" y="560" width="70" height="30" as="geometry" />
        </mxCell>
        <mxCell id="kov3exJGOiLsOatTBzYe-279" value="" style="shape=flexArrow;endArrow=classic;html=1;rounded=0;fillColor=#000066;strokeColor=#000066;endWidth=7;endSize=6.38;entryX=0;entryY=0.5;entryDx=0;entryDy=0;" edge="1" parent="1">
          <mxGeometry width="50" height="50" relative="1" as="geometry">
            <mxPoint x="862.5" y="614.5" as="sourcePoint" />
            <mxPoint x="893" y="615" as="targetPoint" />
          </mxGeometry>
        </mxCell>
        <mxCell id="kov3exJGOiLsOatTBzYe-280" value="" style="rounded=0;whiteSpace=wrap;html=1;fillColor=#dae8fc;strokeColor=#6c8ebf;" vertex="1" parent="1">
          <mxGeometry x="937.5" y="590" width="10" height="50" as="geometry" />
        </mxCell>
        <mxCell id="kov3exJGOiLsOatTBzYe-281" value="&lt;div style=&quot;font-size: 13px;&quot;&gt;$$16^2$$&lt;/div&gt;" style="text;html=1;align=center;verticalAlign=middle;resizable=0;points=[];autosize=1;strokeColor=none;fillColor=none;rotation=-90;" vertex="1" parent="1">
          <mxGeometry x="887.5" y="620" width="80" height="30" as="geometry" />
        </mxCell>
        <mxCell id="kov3exJGOiLsOatTBzYe-282" value="" style="shape=flexArrow;endArrow=classic;html=1;rounded=0;fillColor=#000066;strokeColor=#000066;endWidth=7;endSize=6.38;entryX=0;entryY=0.5;entryDx=0;entryDy=0;" edge="1" parent="1">
          <mxGeometry width="50" height="50" relative="1" as="geometry">
            <mxPoint x="907.5" y="614.5" as="sourcePoint" />
            <mxPoint x="938" y="615" as="targetPoint" />
          </mxGeometry>
        </mxCell>
        <mxCell id="kov3exJGOiLsOatTBzYe-293" value="" style="shape=flexArrow;endArrow=classic;html=1;rounded=0;fillColor=#009900;strokeColor=#009900;endWidth=7;endSize=6.38;" edge="1" parent="1">
          <mxGeometry width="50" height="50" relative="1" as="geometry">
            <mxPoint x="984.92" y="579" as="sourcePoint" />
            <mxPoint x="984.92" y="550" as="targetPoint" />
          </mxGeometry>
        </mxCell>
        <mxCell id="kov3exJGOiLsOatTBzYe-294" value="" style="rounded=0;whiteSpace=wrap;html=1;fillColor=#FFFFFF;strokeColor=#6c8ebf;" vertex="1" parent="1">
          <mxGeometry x="970" y="440" width="10" height="100" as="geometry" />
        </mxCell>
        <mxCell id="kov3exJGOiLsOatTBzYe-295" value="" style="rounded=0;whiteSpace=wrap;html=1;fillColor=#f8cecc;strokeColor=#b85450;" vertex="1" parent="1">
          <mxGeometry x="980" y="440" width="10" height="100" as="geometry" />
        </mxCell>
        <mxCell id="kov3exJGOiLsOatTBzYe-296" value="$$256$$" style="text;html=1;align=center;verticalAlign=middle;resizable=0;points=[];autosize=1;strokeColor=none;fillColor=none;rotation=0;" vertex="1" parent="1">
          <mxGeometry x="945" y="410" width="70" height="30" as="geometry" />
        </mxCell>
        <mxCell id="kov3exJGOiLsOatTBzYe-297" value="&lt;div style=&quot;font-size: 14px;&quot;&gt;$$32^2$$&lt;/div&gt;" style="text;html=1;align=center;verticalAlign=middle;resizable=0;points=[];autosize=1;strokeColor=none;fillColor=none;rotation=-90;" vertex="1" parent="1">
          <mxGeometry x="915" y="510" width="90" height="30" as="geometry" />
        </mxCell>
        <mxCell id="kov3exJGOiLsOatTBzYe-298" value="" style="shape=flexArrow;endArrow=classic;html=1;rounded=0;fillColor=#000066;strokeColor=#000066;endWidth=7;endSize=6.38;entryX=0;entryY=0.5;entryDx=0;entryDy=0;" edge="1" parent="1">
          <mxGeometry width="50" height="50" relative="1" as="geometry">
            <mxPoint x="990" y="489.5" as="sourcePoint" />
            <mxPoint x="1020.5" y="490" as="targetPoint" />
          </mxGeometry>
        </mxCell>
        <mxCell id="kov3exJGOiLsOatTBzYe-302" value="&lt;div style=&quot;font-size: 14px;&quot;&gt;$$32^2$$&lt;/div&gt;" style="text;html=1;align=center;verticalAlign=middle;resizable=0;points=[];autosize=1;strokeColor=none;fillColor=none;rotation=-90;" vertex="1" parent="1">
          <mxGeometry x="970" y="510" width="90" height="30" as="geometry" />
        </mxCell>
        <mxCell id="kov3exJGOiLsOatTBzYe-309" value="" style="rounded=0;whiteSpace=wrap;html=1;fillColor=#dae8fc;strokeColor=#6c8ebf;" vertex="1" parent="1">
          <mxGeometry x="1025" y="440" width="5" height="100" as="geometry" />
        </mxCell>
        <mxCell id="kov3exJGOiLsOatTBzYe-311" value="$$128$$" style="text;html=1;align=center;verticalAlign=middle;resizable=0;points=[];autosize=1;strokeColor=none;fillColor=none;rotation=0;" vertex="1" parent="1">
          <mxGeometry x="992.5" y="410" width="70" height="30" as="geometry" />
        </mxCell>
        <mxCell id="kov3exJGOiLsOatTBzYe-312" value="" style="shape=flexArrow;endArrow=classic;html=1;rounded=0;fillColor=#000066;strokeColor=#000066;endWidth=7;endSize=6.38;entryX=0;entryY=0.5;entryDx=0;entryDy=0;" edge="1" parent="1">
          <mxGeometry width="50" height="50" relative="1" as="geometry">
            <mxPoint x="1030" y="489.5" as="sourcePoint" />
            <mxPoint x="1060.5" y="490" as="targetPoint" />
          </mxGeometry>
        </mxCell>
        <mxCell id="kov3exJGOiLsOatTBzYe-321" value="&lt;div style=&quot;font-size: 14px;&quot;&gt;$$32^2$$&lt;/div&gt;" style="text;html=1;align=center;verticalAlign=middle;resizable=0;points=[];autosize=1;strokeColor=none;fillColor=none;rotation=-90;" vertex="1" parent="1">
          <mxGeometry x="1005" y="510" width="90" height="30" as="geometry" />
        </mxCell>
        <mxCell id="kov3exJGOiLsOatTBzYe-322" value="" style="rounded=0;whiteSpace=wrap;html=1;fillColor=#dae8fc;strokeColor=#6c8ebf;" vertex="1" parent="1">
          <mxGeometry x="1060" y="440" width="5" height="100" as="geometry" />
        </mxCell>
        <mxCell id="kov3exJGOiLsOatTBzYe-326" value="" style="rounded=0;whiteSpace=wrap;html=1;fillColor=#f8cecc;strokeColor=#b85450;" vertex="1" parent="1">
          <mxGeometry x="1095" y="190" width="5" height="200" as="geometry" />
        </mxCell>
        <mxCell id="kov3exJGOiLsOatTBzYe-327" value="" style="shape=flexArrow;endArrow=classic;html=1;rounded=0;fillColor=#009900;strokeColor=#009900;endWidth=7;endSize=6.38;" edge="1" parent="1">
          <mxGeometry width="50" height="50" relative="1" as="geometry">
            <mxPoint x="1097.3" y="429" as="sourcePoint" />
            <mxPoint x="1097.3" y="400" as="targetPoint" />
          </mxGeometry>
        </mxCell>
        <mxCell id="kov3exJGOiLsOatTBzYe-329" value="$$128$$" style="text;html=1;align=center;verticalAlign=middle;resizable=0;points=[];autosize=1;strokeColor=none;fillColor=none;rotation=0;" vertex="1" parent="1">
          <mxGeometry x="1060" y="160" width="70" height="30" as="geometry" />
        </mxCell>
        <mxCell id="kov3exJGOiLsOatTBzYe-330" value="" style="rounded=0;whiteSpace=wrap;html=1;fillColor=#dae8fc;strokeColor=#6c8ebf;" vertex="1" parent="1">
          <mxGeometry x="275" y="190" width="5" height="200" as="geometry" />
        </mxCell>
        <mxCell id="kov3exJGOiLsOatTBzYe-331" value="" style="shape=flexArrow;endArrow=classic;html=1;rounded=0;fillColor=#000066;strokeColor=#000066;endWidth=7;endSize=6.38;entryX=0;entryY=0.5;entryDx=0;entryDy=0;" edge="1" parent="1">
          <mxGeometry width="50" height="50" relative="1" as="geometry">
            <mxPoint x="1100" y="289.5" as="sourcePoint" />
            <mxPoint x="1130.5" y="290" as="targetPoint" />
          </mxGeometry>
        </mxCell>
        <mxCell id="kov3exJGOiLsOatTBzYe-334" value="" style="shape=flexArrow;endArrow=classic;html=1;rounded=0;fillColor=#000066;strokeColor=#000066;endWidth=7;endSize=6.38;entryX=0;entryY=0.5;entryDx=0;entryDy=0;" edge="1" parent="1">
          <mxGeometry width="50" height="50" relative="1" as="geometry">
            <mxPoint x="1140" y="289.5" as="sourcePoint" />
            <mxPoint x="1170.5" y="290" as="targetPoint" />
          </mxGeometry>
        </mxCell>
        <mxCell id="kov3exJGOiLsOatTBzYe-335" value="&lt;font style=&quot;font-size: 14px;&quot;&gt;$$64 \times 64$$&lt;/font&gt;" style="text;html=1;align=center;verticalAlign=middle;resizable=0;points=[];autosize=1;strokeColor=none;fillColor=none;rotation=-90;" vertex="1" parent="1">
          <mxGeometry x="1015" y="340" width="130" height="30" as="geometry" />
        </mxCell>
        <mxCell id="kov3exJGOiLsOatTBzYe-339" value="" style="rounded=0;whiteSpace=wrap;html=1;fillColor=#dae8fc;strokeColor=#6c8ebf;" vertex="1" parent="1">
          <mxGeometry x="1135" y="190" width="5" height="200" as="geometry" />
        </mxCell>
        <mxCell id="kov3exJGOiLsOatTBzYe-340" value="&lt;font style=&quot;font-size: 14px;&quot;&gt;$$64 \times 64$$&lt;/font&gt;" style="text;html=1;align=center;verticalAlign=middle;resizable=0;points=[];autosize=1;strokeColor=none;fillColor=none;rotation=-90;" vertex="1" parent="1">
          <mxGeometry x="1060" y="340" width="130" height="30" as="geometry" />
        </mxCell>
        <mxCell id="kov3exJGOiLsOatTBzYe-345" value="" style="rounded=0;whiteSpace=wrap;html=1;fillColor=#dae8fc;strokeColor=#6c8ebf;" vertex="1" parent="1">
          <mxGeometry x="1175" y="190" width="5" height="200" as="geometry" />
        </mxCell>
        <mxCell id="kov3exJGOiLsOatTBzYe-348" value="" style="shape=flexArrow;endArrow=classic;html=1;rounded=0;fillColor=#000066;strokeColor=#000066;endWidth=7;endSize=6.38;entryX=0;entryY=0.5;entryDx=0;entryDy=0;" edge="1" parent="1">
          <mxGeometry width="50" height="50" relative="1" as="geometry">
            <mxPoint x="862.5" y="614.5" as="sourcePoint" />
            <mxPoint x="893" y="615" as="targetPoint" />
          </mxGeometry>
        </mxCell>
        <mxCell id="kov3exJGOiLsOatTBzYe-349" value="" style="shape=flexArrow;endArrow=classic;html=1;rounded=0;fillColor=#009999;strokeColor=#009999;endWidth=7;endSize=6.38;entryX=0;entryY=0.5;entryDx=0;entryDy=0;" edge="1" parent="1">
          <mxGeometry width="50" height="50" relative="1" as="geometry">
            <mxPoint x="1215" y="289.75" as="sourcePoint" />
            <mxPoint x="1245.5" y="290.25" as="targetPoint" />
          </mxGeometry>
        </mxCell>
        <mxCell id="kov3exJGOiLsOatTBzYe-350" value="" style="rounded=0;whiteSpace=wrap;html=1;fillColor=#d5e8d4;strokeColor=#82b366;" vertex="1" parent="1">
          <mxGeometry x="1250" y="190" width="2" height="200" as="geometry" />
        </mxCell>
        <mxCell id="kov3exJGOiLsOatTBzYe-351" value="$$64$$" style="text;html=1;align=center;verticalAlign=middle;resizable=0;points=[];autosize=1;strokeColor=none;fillColor=none;rotation=0;" vertex="1" parent="1">
          <mxGeometry x="1107.5" y="160" width="60" height="30" as="geometry" />
        </mxCell>
        <mxCell id="kov3exJGOiLsOatTBzYe-352" value="$$64$$" style="text;html=1;align=center;verticalAlign=middle;resizable=0;points=[];autosize=1;strokeColor=none;fillColor=none;rotation=0;" vertex="1" parent="1">
          <mxGeometry x="1147.5" y="160" width="60" height="30" as="geometry" />
        </mxCell>
        <mxCell id="kov3exJGOiLsOatTBzYe-353" value="$$3$$" style="text;html=1;align=center;verticalAlign=middle;resizable=0;points=[];autosize=1;strokeColor=none;fillColor=none;rotation=0;" vertex="1" parent="1">
          <mxGeometry x="1221" y="160" width="60" height="30" as="geometry" />
        </mxCell>
        <mxCell id="kov3exJGOiLsOatTBzYe-355" value="" style="shape=flexArrow;endArrow=classic;html=1;rounded=0;fillColor=#999999;strokeColor=#999999;endWidth=7;endSize=6.38;entryX=0;entryY=0.5;entryDx=0;entryDy=0;" edge="1" parent="1">
          <mxGeometry width="50" height="50" relative="1" as="geometry">
            <mxPoint x="1340" y="264.5" as="sourcePoint" />
            <mxPoint x="1370.5" y="265" as="targetPoint" />
          </mxGeometry>
        </mxCell>
        <mxCell id="kov3exJGOiLsOatTBzYe-357" value="" style="shape=flexArrow;endArrow=classic;html=1;rounded=0;fillColor=#660000;strokeColor=#660000;endWidth=7;endSize=6.38;" edge="1" parent="1">
          <mxGeometry width="50" height="50" relative="1" as="geometry">
            <mxPoint x="1357.5" y="290" as="sourcePoint" />
            <mxPoint x="1357.5" y="320" as="targetPoint" />
          </mxGeometry>
        </mxCell>
        <mxCell id="kov3exJGOiLsOatTBzYe-358" value="" style="shape=flexArrow;endArrow=classic;html=1;rounded=0;fillColor=#009900;strokeColor=#009900;endWidth=7;endSize=6.38;" edge="1" parent="1">
          <mxGeometry width="50" height="50" relative="1" as="geometry">
            <mxPoint x="1357.5" y="357.5" as="sourcePoint" />
            <mxPoint x="1357.5" y="328.5" as="targetPoint" />
          </mxGeometry>
        </mxCell>
        <mxCell id="kov3exJGOiLsOatTBzYe-359" value="" style="shape=flexArrow;endArrow=classic;html=1;rounded=0;fillColor=#009999;strokeColor=#009999;endWidth=7;endSize=6.38;entryX=0;entryY=0.5;entryDx=0;entryDy=0;" edge="1" parent="1">
          <mxGeometry width="50" height="50" relative="1" as="geometry">
            <mxPoint x="1342" y="374.5" as="sourcePoint" />
            <mxPoint x="1372.5" y="375" as="targetPoint" />
          </mxGeometry>
        </mxCell>
        <mxCell id="kov3exJGOiLsOatTBzYe-363" value="&lt;font color=&quot;#0000cc&quot; style=&quot;font-size: 14px;&quot;&gt;conv 3x3, ReLU&lt;/font&gt;" style="text;html=1;align=center;verticalAlign=middle;resizable=0;points=[];autosize=1;strokeColor=none;fillColor=none;" vertex="1" parent="1">
          <mxGeometry x="1362.5" y="160" width="120" height="30" as="geometry" />
        </mxCell>
        <mxCell id="kov3exJGOiLsOatTBzYe-364" value="&lt;font style=&quot;font-size: 14px;&quot; color=&quot;#666666&quot;&gt;copy and concat&lt;br&gt;&lt;/font&gt;" style="text;html=1;align=center;verticalAlign=middle;resizable=0;points=[];autosize=1;strokeColor=none;fillColor=none;" vertex="1" parent="1">
          <mxGeometry x="1367.5" y="250" width="130" height="30" as="geometry" />
        </mxCell>
        <mxCell id="kov3exJGOiLsOatTBzYe-365" value="&lt;font color=&quot;#990000&quot; style=&quot;font-size: 14px;&quot;&gt;max pool 2x2&lt;/font&gt;&lt;font color=&quot;#990000&quot; style=&quot;font-size: 14px;&quot;&gt;&lt;br&gt;&lt;/font&gt;" style="text;html=1;align=center;verticalAlign=middle;resizable=0;points=[];autosize=1;strokeColor=none;fillColor=none;" vertex="1" parent="1">
          <mxGeometry x="1367.5" y="290" width="110" height="30" as="geometry" />
        </mxCell>
        <mxCell id="kov3exJGOiLsOatTBzYe-366" value="&lt;font color=&quot;#009900&quot; style=&quot;font-size: 14px;&quot;&gt;bilinear upsampling&lt;/font&gt;&lt;font color=&quot;#009900&quot; style=&quot;font-size: 14px;&quot;&gt;&lt;br&gt;&lt;/font&gt;" style="text;html=1;align=center;verticalAlign=middle;resizable=0;points=[];autosize=1;strokeColor=none;fillColor=none;" vertex="1" parent="1">
          <mxGeometry x="1367.5" y="330" width="150" height="30" as="geometry" />
        </mxCell>
        <mxCell id="kov3exJGOiLsOatTBzYe-367" value="&lt;font color=&quot;#009999&quot; style=&quot;font-size: 14px;&quot;&gt;conv 1x1&lt;br&gt;&lt;/font&gt;" style="text;html=1;align=center;verticalAlign=middle;resizable=0;points=[];autosize=1;strokeColor=none;fillColor=none;" vertex="1" parent="1">
          <mxGeometry x="1370" y="360" width="80" height="30" as="geometry" />
        </mxCell>
        <mxCell id="kov3exJGOiLsOatTBzYe-371" value="" style="rounded=1;whiteSpace=wrap;html=1;fillColor=none;" vertex="1" parent="1">
          <mxGeometry x="1310" y="120" width="320" height="290" as="geometry" />
        </mxCell>
        <mxCell id="zQMsx2hcJBcJ69cjAIDr-5" value="$$128$$" style="text;html=1;align=center;verticalAlign=middle;resizable=0;points=[];autosize=1;strokeColor=none;fillColor=none;rotation=0;" vertex="1" parent="1">
          <mxGeometry x="430" y="410" width="70" height="30" as="geometry" />
        </mxCell>
        <mxCell id="zQMsx2hcJBcJ69cjAIDr-6" value="" style="rounded=0;whiteSpace=wrap;html=1;fillColor=#dae8fc;strokeColor=#6c8ebf;" vertex="1" parent="1">
          <mxGeometry x="460" y="440" width="10" height="100" as="geometry" />
        </mxCell>
        <mxCell id="zQMsx2hcJBcJ69cjAIDr-10" value="" style="shape=flexArrow;endArrow=classic;html=1;rounded=0;fillColor=#000066;strokeColor=#000066;endWidth=7;endSize=6.38;entryX=0;entryY=0.5;entryDx=0;entryDy=0;" edge="1" parent="1">
          <mxGeometry width="50" height="50" relative="1" as="geometry">
            <mxPoint x="430" y="489.71" as="sourcePoint" />
            <mxPoint x="460" y="490.21" as="targetPoint" />
          </mxGeometry>
        </mxCell>
        <mxCell id="zQMsx2hcJBcJ69cjAIDr-11" value="&lt;div style=&quot;font-size: 14px;&quot;&gt;$$32^2$$&lt;/div&gt;" style="text;html=1;align=center;verticalAlign=middle;resizable=0;points=[];autosize=1;strokeColor=none;fillColor=none;rotation=-90;" vertex="1" parent="1">
          <mxGeometry x="400" y="510" width="90" height="30" as="geometry" />
        </mxCell>
        <mxCell id="zQMsx2hcJBcJ69cjAIDr-16" value="" style="rounded=0;whiteSpace=wrap;html=1;fillColor=#dae8fc;strokeColor=#6c8ebf;" vertex="1" parent="1">
          <mxGeometry x="1346.25" y="170" width="10" height="15" as="geometry" />
        </mxCell>
        <mxCell id="zQMsx2hcJBcJ69cjAIDr-17" value="" style="rounded=0;whiteSpace=wrap;html=1;fillColor=#ffe6cc;strokeColor=#d79b00;" vertex="1" parent="1">
          <mxGeometry x="1346.25" y="200" width="10" height="15" as="geometry" />
        </mxCell>
        <mxCell id="zQMsx2hcJBcJ69cjAIDr-18" value="&lt;span style=&quot;font-size: 14px;&quot;&gt;Multihead-Self Attention&lt;/span&gt;" style="text;html=1;align=center;verticalAlign=middle;resizable=0;points=[];autosize=1;strokeColor=none;fillColor=none;fontColor=#FF9933;" vertex="1" parent="1">
          <mxGeometry x="1361.25" y="190" width="170" height="30" as="geometry" />
        </mxCell>
        <mxCell id="zQMsx2hcJBcJ69cjAIDr-19" value="$$256$$" style="text;html=1;align=center;verticalAlign=middle;resizable=0;points=[];autosize=1;strokeColor=none;fillColor=none;rotation=0;" vertex="1" parent="1">
          <mxGeometry x="577.5" y="560" width="70" height="30" as="geometry" />
        </mxCell>
        <mxCell id="zQMsx2hcJBcJ69cjAIDr-20" value="" style="shape=flexArrow;endArrow=classic;html=1;rounded=0;fillColor=#000066;strokeColor=#000066;endWidth=7;endSize=6.38;entryX=0;entryY=0.5;entryDx=0;entryDy=0;" edge="1" parent="1">
          <mxGeometry width="50" height="50" relative="1" as="geometry">
            <mxPoint x="570" y="614.75" as="sourcePoint" />
            <mxPoint x="600" y="615.25" as="targetPoint" />
          </mxGeometry>
        </mxCell>
        <mxCell id="zQMsx2hcJBcJ69cjAIDr-21" value="" style="rounded=0;whiteSpace=wrap;html=1;fillColor=#dae8fc;strokeColor=#6c8ebf;" vertex="1" parent="1">
          <mxGeometry x="605" y="590" width="15" height="50" as="geometry" />
        </mxCell>
        <mxCell id="zQMsx2hcJBcJ69cjAIDr-23" value="&lt;div style=&quot;font-size: 13px;&quot;&gt;$$16^2$$&lt;/div&gt;" style="text;html=1;align=center;verticalAlign=middle;resizable=0;points=[];autosize=1;strokeColor=none;fillColor=none;rotation=-90;" vertex="1" parent="1">
          <mxGeometry x="555" y="620" width="80" height="30" as="geometry" />
        </mxCell>
        <mxCell id="zQMsx2hcJBcJ69cjAIDr-24" value="" style="rounded=0;whiteSpace=wrap;html=1;fillColor=#f8cecc;strokeColor=#b85450;" vertex="1" parent="1">
          <mxGeometry x="1346.25" y="230" width="10" height="15" as="geometry" />
        </mxCell>
        <mxCell id="zQMsx2hcJBcJ69cjAIDr-25" value="&lt;span style=&quot;font-size: 14px;&quot;&gt;&lt;font color=&quot;#ff6666&quot;&gt;Feature Space after Up/Down Sampling&lt;/font&gt;&lt;/span&gt;" style="text;html=1;align=center;verticalAlign=middle;resizable=0;points=[];autosize=1;strokeColor=none;fillColor=none;fontColor=#FF9933;" vertex="1" parent="1">
          <mxGeometry x="1361.25" y="222.5" width="270" height="30" as="geometry" />
        </mxCell>
        <mxCell id="zQMsx2hcJBcJ69cjAIDr-27" value="$$512$$" style="text;html=1;align=center;verticalAlign=middle;resizable=0;points=[];autosize=1;strokeColor=none;fillColor=none;rotation=0;" vertex="1" parent="1">
          <mxGeometry x="755" y="675" width="70" height="30" as="geometry" />
        </mxCell>
        <mxCell id="zQMsx2hcJBcJ69cjAIDr-28" value="" style="rounded=0;whiteSpace=wrap;html=1;fillColor=#dae8fc;strokeColor=#6c8ebf;" vertex="1" parent="1">
          <mxGeometry x="783.75" y="705" width="12.5" height="30" as="geometry" />
        </mxCell>
        <mxCell id="zQMsx2hcJBcJ69cjAIDr-29" value="" style="shape=flexArrow;endArrow=classic;html=1;rounded=0;fillColor=#000066;strokeColor=#000066;endWidth=7;endSize=6.38;entryX=0;entryY=0.5;entryDx=0;entryDy=0;" edge="1" parent="1">
          <mxGeometry width="50" height="50" relative="1" as="geometry">
            <mxPoint x="740" y="719.75" as="sourcePoint" />
            <mxPoint x="770" y="720.25" as="targetPoint" />
          </mxGeometry>
        </mxCell>
        <mxCell id="zQMsx2hcJBcJ69cjAIDr-30" value="&lt;div style=&quot;font-size: 13px;&quot;&gt;$$8^2$$&lt;/div&gt;" style="text;html=1;align=center;verticalAlign=middle;resizable=0;points=[];autosize=1;strokeColor=none;fillColor=none;rotation=-90;" vertex="1" parent="1">
          <mxGeometry x="740" y="715" width="70" height="30" as="geometry" />
        </mxCell>
        <mxCell id="zQMsx2hcJBcJ69cjAIDr-31" value="" style="rounded=0;whiteSpace=wrap;html=1;fillColor=#dae8fc;strokeColor=#6c8ebf;" vertex="1" parent="1">
          <mxGeometry x="837" y="705" width="12.5" height="30" as="geometry" />
        </mxCell>
        <mxCell id="zQMsx2hcJBcJ69cjAIDr-32" value="" style="shape=flexArrow;endArrow=classic;html=1;rounded=0;fillColor=#000066;strokeColor=#000066;endWidth=7;endSize=6.38;entryX=0;entryY=0.5;entryDx=0;entryDy=0;" edge="1" parent="1">
          <mxGeometry width="50" height="50" relative="1" as="geometry">
            <mxPoint x="796.25" y="719.75" as="sourcePoint" />
            <mxPoint x="826.25" y="720.25" as="targetPoint" />
          </mxGeometry>
        </mxCell>
        <mxCell id="zQMsx2hcJBcJ69cjAIDr-33" value="&lt;div style=&quot;font-size: 13px;&quot;&gt;$$8^2$$&lt;/div&gt;" style="text;html=1;align=center;verticalAlign=middle;resizable=0;points=[];autosize=1;strokeColor=none;fillColor=none;rotation=-90;" vertex="1" parent="1">
          <mxGeometry x="795" y="715" width="70" height="30" as="geometry" />
        </mxCell>
        <mxCell id="zQMsx2hcJBcJ69cjAIDr-34" value="$$256$$" style="text;html=1;align=center;verticalAlign=middle;resizable=0;points=[];autosize=1;strokeColor=none;fillColor=none;rotation=0;" vertex="1" parent="1">
          <mxGeometry x="805" y="675" width="70" height="30" as="geometry" />
        </mxCell>
        <mxCell id="zQMsx2hcJBcJ69cjAIDr-35" value="" style="shape=flexArrow;endArrow=classic;html=1;rounded=0;fillColor=#000066;strokeColor=#000066;endWidth=7;endSize=6.38;entryX=0;entryY=0.5;entryDx=0;entryDy=0;" edge="1" parent="1">
          <mxGeometry width="50" height="50" relative="1" as="geometry">
            <mxPoint x="947.5" y="615" as="sourcePoint" />
            <mxPoint x="978" y="615.5" as="targetPoint" />
          </mxGeometry>
        </mxCell>
        <mxCell id="zQMsx2hcJBcJ69cjAIDr-36" value="" style="rounded=0;whiteSpace=wrap;html=1;fillColor=#ffe6cc;strokeColor=#d79b00;" vertex="1" parent="1">
          <mxGeometry x="980" y="590" width="10" height="50" as="geometry" />
        </mxCell>
        <mxCell id="zQMsx2hcJBcJ69cjAIDr-37" value="&lt;div style=&quot;font-size: 13px;&quot;&gt;$$16^2$$&lt;/div&gt;" style="text;html=1;align=center;verticalAlign=middle;resizable=0;points=[];autosize=1;strokeColor=none;fillColor=none;rotation=-90;" vertex="1" parent="1">
          <mxGeometry x="927.5" y="620" width="80" height="30" as="geometry" />
        </mxCell>
        <mxCell id="zQMsx2hcJBcJ69cjAIDr-38" value="$$128$$" style="text;html=1;align=center;verticalAlign=middle;resizable=0;points=[];autosize=1;strokeColor=none;fillColor=none;rotation=0;" vertex="1" parent="1">
          <mxGeometry x="907.5" y="560" width="70" height="30" as="geometry" />
        </mxCell>
        <mxCell id="zQMsx2hcJBcJ69cjAIDr-39" value="" style="shape=flexArrow;endArrow=classic;html=1;rounded=0;fillColor=#000066;strokeColor=#000066;endWidth=7;endSize=6.38;entryX=0;entryY=0.5;entryDx=0;entryDy=0;" edge="1" parent="1">
          <mxGeometry width="50" height="50" relative="1" as="geometry">
            <mxPoint x="1064.5" y="489.75" as="sourcePoint" />
            <mxPoint x="1095" y="490.25" as="targetPoint" />
          </mxGeometry>
        </mxCell>
        <mxCell id="zQMsx2hcJBcJ69cjAIDr-40" value="" style="rounded=0;whiteSpace=wrap;html=1;fillColor=#ffe6cc;strokeColor=#d79b00;" vertex="1" parent="1">
          <mxGeometry x="1095" y="440" width="5" height="100" as="geometry" />
        </mxCell>
        <mxCell id="zQMsx2hcJBcJ69cjAIDr-41" value="&lt;div style=&quot;font-size: 14px;&quot;&gt;$$32^2$$&lt;/div&gt;" style="text;html=1;align=center;verticalAlign=middle;resizable=0;points=[];autosize=1;strokeColor=none;fillColor=none;rotation=-90;" vertex="1" parent="1">
          <mxGeometry x="1040" y="510" width="90" height="30" as="geometry" />
        </mxCell>
        <mxCell id="zQMsx2hcJBcJ69cjAIDr-42" value="$$64$$" style="text;html=1;align=center;verticalAlign=middle;resizable=0;points=[];autosize=1;strokeColor=none;fillColor=none;rotation=0;" vertex="1" parent="1">
          <mxGeometry x="1030" y="410" width="60" height="30" as="geometry" />
        </mxCell>
        <mxCell id="zQMsx2hcJBcJ69cjAIDr-43" value="&lt;font style=&quot;font-size: 14px;&quot;&gt;$$64 \times 64$$&lt;/font&gt;" style="text;html=1;align=center;verticalAlign=middle;resizable=0;points=[];autosize=1;strokeColor=none;fillColor=none;rotation=-90;" vertex="1" parent="1">
          <mxGeometry x="1100" y="340" width="130" height="30" as="geometry" />
        </mxCell>
        <mxCell id="zQMsx2hcJBcJ69cjAIDr-44" value="&lt;font style=&quot;font-size: 14px;&quot;&gt;$$64 \times 64$$&lt;/font&gt;" style="text;html=1;align=center;verticalAlign=middle;resizable=0;points=[];autosize=1;strokeColor=none;fillColor=none;rotation=-90;" vertex="1" parent="1">
          <mxGeometry x="1180" y="340" width="130" height="30" as="geometry" />
        </mxCell>
        <mxCell id="zQMsx2hcJBcJ69cjAIDr-45" value="" style="shape=flexArrow;endArrow=classic;html=1;rounded=0;fillColor=#000066;strokeColor=#000066;endWidth=7;endSize=6.38;entryX=0;entryY=0.5;entryDx=0;entryDy=0;" edge="1" parent="1">
          <mxGeometry width="50" height="50" relative="1" as="geometry">
            <mxPoint x="1180" y="289.75" as="sourcePoint" />
            <mxPoint x="1210.5" y="290.25" as="targetPoint" />
          </mxGeometry>
        </mxCell>
        <mxCell id="zQMsx2hcJBcJ69cjAIDr-46" value="" style="rounded=0;whiteSpace=wrap;html=1;fillColor=#ffe6cc;strokeColor=#d79b00;" vertex="1" parent="1">
          <mxGeometry x="1212.5" y="190" width="5" height="200" as="geometry" />
        </mxCell>
        <mxCell id="zQMsx2hcJBcJ69cjAIDr-47" value="&lt;font style=&quot;font-size: 14px;&quot;&gt;$$64 \times 64$$&lt;/font&gt;" style="text;html=1;align=center;verticalAlign=middle;resizable=0;points=[];autosize=1;strokeColor=none;fillColor=none;rotation=-90;" vertex="1" parent="1">
          <mxGeometry x="1140" y="340" width="130" height="30" as="geometry" />
        </mxCell>
        <mxCell id="zQMsx2hcJBcJ69cjAIDr-48" value="$$64$$" style="text;html=1;align=center;verticalAlign=middle;resizable=0;points=[];autosize=1;strokeColor=none;fillColor=none;rotation=0;" vertex="1" parent="1">
          <mxGeometry x="1185" y="160" width="60" height="30" as="geometry" />
        </mxCell>
        <mxCell id="zQMsx2hcJBcJ69cjAIDr-49" value="" style="rounded=0;whiteSpace=wrap;html=1;fillColor=#d5e8d4;strokeColor=#82b366;" vertex="1" parent="1">
          <mxGeometry x="1346.25" y="135" width="10" height="15" as="geometry" />
        </mxCell>
        <mxCell id="zQMsx2hcJBcJ69cjAIDr-50" value="&lt;font color=&quot;#66cc00&quot; style=&quot;font-size: 14px;&quot;&gt;Input/Output&lt;/font&gt;" style="text;html=1;align=center;verticalAlign=middle;resizable=0;points=[];autosize=1;strokeColor=none;fillColor=none;" vertex="1" parent="1">
          <mxGeometry x="1362.5" y="127.5" width="100" height="30" as="geometry" />
        </mxCell>
        <mxCell id="zQMsx2hcJBcJ69cjAIDr-56" value="$$128$$" style="text;html=1;align=center;verticalAlign=middle;resizable=0;points=[];autosize=1;strokeColor=none;fillColor=none;rotation=0;" vertex="1" parent="1">
          <mxGeometry x="312.5" y="160" width="70" height="30" as="geometry" />
        </mxCell>
        <mxCell id="zQMsx2hcJBcJ69cjAIDr-57" value="" style="shape=flexArrow;endArrow=classic;html=1;rounded=0;fillColor=#000066;strokeColor=#000066;endWidth=7;endSize=6.38;" edge="1" parent="1">
          <mxGeometry width="50" height="50" relative="1" as="geometry">
            <mxPoint x="315" y="289.5" as="sourcePoint" />
            <mxPoint x="345" y="290" as="targetPoint" />
          </mxGeometry>
        </mxCell>
        <mxCell id="zQMsx2hcJBcJ69cjAIDr-58" value="" style="rounded=0;whiteSpace=wrap;html=1;fillColor=#dae8fc;strokeColor=#6c8ebf;" vertex="1" parent="1">
          <mxGeometry x="312.5" y="190" width="5" height="200" as="geometry" />
        </mxCell>
        <mxCell id="zQMsx2hcJBcJ69cjAIDr-59" value="&lt;font style=&quot;font-size: 14px;&quot;&gt;$$64 \times 64$$&lt;/font&gt;" style="text;html=1;align=center;verticalAlign=middle;resizable=0;points=[];autosize=1;strokeColor=none;fillColor=none;rotation=-90;" vertex="1" parent="1">
          <mxGeometry x="270" y="340" width="130" height="30" as="geometry" />
        </mxCell>
        <mxCell id="zQMsx2hcJBcJ69cjAIDr-60" value="" style="rounded=0;whiteSpace=wrap;html=1;fillColor=#dae8fc;strokeColor=#6c8ebf;" vertex="1" parent="1">
          <mxGeometry x="345" y="190" width="5" height="200" as="geometry" />
        </mxCell>
        <mxCell id="zQMsx2hcJBcJ69cjAIDr-61" value="&lt;font style=&quot;font-size: 14px;&quot;&gt;$$64 \times 64$$&lt;/font&gt;" style="text;html=1;align=center;verticalAlign=middle;resizable=0;points=[];autosize=1;strokeColor=none;fillColor=none;rotation=-90;" vertex="1" parent="1">
          <mxGeometry x="240" y="340" width="130" height="30" as="geometry" />
        </mxCell>
        <mxCell id="zQMsx2hcJBcJ69cjAIDr-62" value="$$128$$" style="text;html=1;align=center;verticalAlign=middle;resizable=0;points=[];autosize=1;strokeColor=none;fillColor=none;rotation=0;" vertex="1" parent="1">
          <mxGeometry x="280" y="160" width="70" height="30" as="geometry" />
        </mxCell>
        <mxCell id="zQMsx2hcJBcJ69cjAIDr-63" value="" style="shape=flexArrow;endArrow=classic;html=1;rounded=0;fillColor=#000066;strokeColor=#000066;endWidth=7;endSize=6.38;" edge="1" parent="1">
          <mxGeometry width="50" height="50" relative="1" as="geometry">
            <mxPoint x="280" y="290" as="sourcePoint" />
            <mxPoint x="310" y="290.5" as="targetPoint" />
          </mxGeometry>
        </mxCell>
      </root>
    </mxGraphModel>
  </diagram>
</mxfile>
